<svg width="81" height="46" viewBox="0 0 81 46" fill="none" xmlns="http://www.w3.org/2000/svg">
<path d="M9.76561 33.9934C4.66989 34.1882 -0.109787 30.0262 1.2275 25.1411C2.03959 22.1745 3.66746 19.5229 6.92043 18.5732C0.431914 4.87612 20.7181 -7.20951 30.0563 8.21073C38.9797 0.0418436 46.6901 6.08466 46.2843 12.9332C55.2122 8.21073 63.3284 15.3503 60.4877 23.0045C64.141 29.4808 60.9348 33.9934 53.4578 33.9934H9.76561Z" fill="white" stroke="black" stroke-width="2"/>
<path d="M22.4591 29.3887C19.2639 30.3166 17.6448 32.8865 16.8269 35.7771C15.4455 40.6588 20.2196 44.8398 25.2894 44.647H68.8768C76.2453 44.647 79.3807 40.1831 75.7458 33.7735C78.5716 26.1996 70.4978 19.135 61.6167 23.8079C62.0204 17.0313 54.3504 11.0519 45.4737 19.135C36.1845 3.87669 16.0046 15.8354 22.4591 29.3887Z" fill="white" stroke="black" stroke-width="2"/>
</svg>
