<svg width="20" height="20" viewBox="0 0 17 27" fill="none" xmlns="http://www.w3.org/2000/svg">
<path d="M2.70921 14.2294C3.7154 12.2672 5.43797 8.90788 8.4999 2.36768C11.5328 8.84892 13.2785 12.2826 14.3097 14.3107C14.5165 14.7175 14.6945 15.0677 14.8485 15.3746C15.3491 16.3729 15.5578 16.8439 15.6862 17.293C15.8113 17.7309 15.8682 18.1702 15.9894 19.1074C15.9928 19.1336 15.9962 19.1602 15.9997 19.1871C15.9634 22.8863 12.692 26 8.5 26C4.31243 26 1.04346 22.8929 1.00043 19.1988C1.00937 19.1407 1.01806 19.0843 1.02651 19.0293C1.17885 18.039 1.25406 17.55 1.38628 17.0922C1.5229 16.6191 1.7272 16.1611 2.215 15.197C2.35732 14.9157 2.52069 14.5971 2.70921 14.2294Z" stroke="white" stroke-width="2"/>
</svg>
