<svg width="71" height="30" viewBox="0 0 71 30" fill="none" xmlns="http://www.w3.org/2000/svg">
<ellipse cx="14.4829" cy="15" rx="14.4829" ry="15" fill="#68FFE4"/>
<path d="M15.5384 22L11.3764 7.45455H14.7358L17.1435 17.5611H17.2642L19.9205 7.45455H22.7969L25.446 17.5824H25.5739L27.9815 7.45455H31.3409L27.179 22H24.1818L21.4119 12.4901H21.2983L18.5355 22H15.5384ZM34.0291 22H30.7337L35.755 7.45455H39.718L44.7322 22H41.4368L37.7933 10.7784H37.6797L34.0291 22ZM33.8232 16.2827H41.6072V18.6832H33.8232V16.2827ZM46.4261 26.0909V11.0909H49.4091V12.9233H49.544C49.6766 12.6297 49.8684 12.3314 50.1193 12.0284C50.375 11.7206 50.7064 11.465 51.1136 11.2614C51.5256 11.053 52.0369 10.9489 52.6477 10.9489C53.4432 10.9489 54.1771 11.1572 54.8494 11.5739C55.5218 11.9858 56.0592 12.6084 56.4616 13.4418C56.8641 14.2704 57.0653 15.3097 57.0653 16.5597C57.0653 17.7765 56.8688 18.804 56.4759 19.642C56.0876 20.4754 55.5573 21.1075 54.8849 21.5384C54.2173 21.9645 53.4692 22.1776 52.6406 22.1776C52.0535 22.1776 51.554 22.0805 51.142 21.8864C50.7348 21.6922 50.401 21.4484 50.1406 21.1548C49.8802 20.8565 49.6813 20.5559 49.544 20.2528H49.4517V26.0909H46.4261ZM49.3878 16.5455C49.3878 17.1941 49.4777 17.7599 49.6577 18.2429C49.8376 18.7259 50.098 19.1023 50.4389 19.3722C50.7798 19.6373 51.1941 19.7699 51.6818 19.7699C52.1742 19.7699 52.5909 19.6349 52.9318 19.3651C53.2727 19.0904 53.5308 18.7116 53.706 18.2287C53.8859 17.741 53.9759 17.1799 53.9759 16.5455C53.9759 15.9157 53.8883 15.3617 53.7131 14.8835C53.5379 14.4053 53.2798 14.0312 52.9389 13.7614C52.598 13.4915 52.179 13.3565 51.6818 13.3565C51.1894 13.3565 50.7727 13.4867 50.4318 13.7472C50.0956 14.0076 49.8376 14.3769 49.6577 14.8551C49.4777 15.3333 49.3878 15.8968 49.3878 16.5455ZM59.0824 26.0909V11.0909H62.0653V12.9233H62.2003C62.3329 12.6297 62.5246 12.3314 62.7756 12.0284C63.0313 11.7206 63.3627 11.465 63.7699 11.2614C64.1818 11.053 64.6932 10.9489 65.304 10.9489C66.0994 10.9489 66.8333 11.1572 67.5057 11.5739C68.178 11.9858 68.7154 12.6084 69.1179 13.4418C69.5204 14.2704 69.7216 15.3097 69.7216 16.5597C69.7216 17.7765 69.5251 18.804 69.1321 19.642C68.7438 20.4754 68.2135 21.1075 67.5412 21.5384C66.8736 21.9645 66.1255 22.1776 65.2969 22.1776C64.7098 22.1776 64.2102 22.0805 63.7983 21.8864C63.3911 21.6922 63.0573 21.4484 62.7969 21.1548C62.5365 20.8565 62.3376 20.5559 62.2003 20.2528H62.108V26.0909H59.0824ZM62.044 16.5455C62.044 17.1941 62.134 17.7599 62.3139 18.2429C62.4938 18.7259 62.7543 19.1023 63.0952 19.3722C63.4361 19.6373 63.8504 19.7699 64.3381 19.7699C64.8305 19.7699 65.2472 19.6349 65.5881 19.3651C65.929 19.0904 66.187 18.7116 66.3622 18.2287C66.5421 17.741 66.6321 17.1799 66.6321 16.5455C66.6321 15.9157 66.5445 15.3617 66.3693 14.8835C66.1941 14.4053 65.9361 14.0312 65.5952 13.7614C65.2543 13.4915 64.8352 13.3565 64.3381 13.3565C63.8456 13.3565 63.429 13.4867 63.0881 13.7472C62.7519 14.0076 62.4938 14.3769 62.3139 14.8551C62.134 15.3333 62.044 15.8968 62.044 16.5455Z" fill="black"/>
</svg>
