<svg width="56" height="43" viewBox="0 0 56 43" fill="none" xmlns="http://www.w3.org/2000/svg">
<path d="M38.8889 3.88812C40.2791 3.29802 41.7265 3.03594 43.1468 3.06744C39.284 5.58261 37.6791 10.6026 39.5515 15.0136C41.4239 19.4247 46.1498 21.7575 50.6424 20.7259C49.6784 21.7695 48.4844 22.6286 47.0943 23.2187C41.8119 25.461 35.6828 22.9641 33.4139 17.6189C31.145 12.2737 33.6065 6.13037 38.8889 3.88812Z" stroke="black" stroke-width="2"/>
<path d="M6.46541 28.754C3.7542 29.5436 2.38413 31.7341 1.69388 34.195C0.534575 38.3283 4.57059 41.864 8.86026 41.7005H45.7191C51.9668 41.7005 54.6297 37.9127 51.5541 32.4745C53.9452 26.0482 47.1136 20.054 39.5988 24.0188C39.9404 18.269 33.4503 13.1956 25.9393 20.054C18.0792 7.10749 1.0039 17.2543 6.46541 28.754Z" fill="white" stroke="black" stroke-width="2"/>
</svg>
