<svg width="25" height="25" viewBox="0 0 53 45" fill="none" xmlns="http://www.w3.org/2000/svg">
<path d="M14.5178 34L9.50764 43.2276M20.5178 34L15.5076 43.2276M26.5178 34L21.5076 43.2276M32.5178 34L27.5076 43.2276M38.5178 34L33.5076 43.2276M1.2015 21.195C1.89175 18.7341 3.26181 16.5436 5.97303 15.754C0.511515 4.2543 17.5868 -5.89251 25.4469 7.05396C32.9579 0.195555 39.448 5.26896 39.1064 11.0188C40.7984 10.1261 42.4559 9.73825 43.9812 9.74658C52.9971 9.7958 54.2428 28.7005 45.2268 28.7005V28.7005H8.36788C4.07821 28.864 0.04219 25.3283 1.2015 21.195Z" stroke="black" stroke-width="2" stroke-linecap="round"/>
</svg>
