<svg width="20" height="20" viewBox="0 0 24 21" fill="none" xmlns="http://www.w3.org/2000/svg">
<path d="M3.51472 20.4853L3.86828 20.8388L4.57538 20.1317L4.22183 19.7782C2.68345 18.2398 1.6358 16.2798 1.21137 14.146C1.03726 13.2707 0.971225 12.3822 1.01137 11.5H3.50001H4.00001V10.5H3.50001H1.10276C1.23021 9.57405 1.47582 8.66325 1.83733 7.79048C2.32837 6.60501 3.02023 5.52112 3.87634 4.58338L5.41427 6.12131L5.76783 6.47487L6.47493 5.76776L6.12138 5.41421L4.58345 3.87628C4.99052 3.50464 5.4266 3.16262 5.88873 2.85383C7.55882 1.73792 9.49979 1.10236 11.5 1.01137V3.5V4H12.5V3.5V1.01137C14.5002 1.10236 16.4412 1.73792 18.1113 2.85383C18.5275 3.13193 18.9225 3.43698 19.2943 3.76634L17.6465 5.41421L17.2929 5.76776L18 6.47487L18.3536 6.12131L20.012 4.46288C20.9197 5.42783 21.6505 6.55389 22.1627 7.79048C22.5242 8.66325 22.7698 9.57405 22.8973 10.5H22.5H20H19.5V11.5H20H22.5H22.9886C23.0288 12.3822 22.9628 13.2707 22.7886 14.146C22.3642 16.2798 21.3166 18.2398 19.7782 19.7782L19.4246 20.1317L20.1317 20.8388L20.4853 20.4853C22.1635 18.8071 23.3064 16.6689 23.7694 14.3411C24.2325 12.0133 23.9948 9.60051 23.0866 7.4078C22.1783 5.21509 20.6402 3.34094 18.6668 2.02236C16.6935 0.703788 14.3734 2.98023e-08 12 0C9.62663 0 7.30655 0.703788 5.33316 2.02236C3.35977 3.34094 1.8217 5.21509 0.913451 7.4078C0.00519919 9.60051 -0.232441 12.0133 0.230582 14.3411C0.693604 16.6689 1.83649 18.8071 3.51472 20.4853ZM12.4596 8.80304L12 7.7307L11.5404 8.80304L10.3238 11.6419C9.8261 12.0362 9.5 12.6104 9.5 13.2857C9.5 14.5782 10.6944 15.5 12 15.5C13.3056 15.5 14.5 14.5782 14.5 13.2857C14.5 12.6104 14.1739 12.0362 13.6762 11.6419L12.4596 8.80304Z" stroke="white" stroke-linecap="square"/>
</svg>
