<svg width="20" height="25" viewBox="0 0 27 30" fill="none" xmlns="http://www.w3.org/2000/svg">
<path d="M16.7433 18.331L21.2433 23.331L25.7433 28.331M21 11C21 16.5228 16.5228 21 11 21C5.47715 21 1 16.5228 1 11C1 5.47715 5.47715 1 11 1C16.5228 1 21 5.47715 21 11ZM1.85928 11C1.85928 16.0483 5.95172 20.1407 11 20.1407C16.0483 20.1407 20.1407 16.0483 20.1407 11C20.1407 5.95172 16.0483 1.85928 11 1.85928C5.95172 1.85928 1.85928 5.95172 1.85928 11Z" stroke="black" stroke-width="2" stroke-linecap="round"/>
</svg>
