<svg width="20" height="20" viewBox="0 0 16 40" fill="none" xmlns="http://www.w3.org/2000/svg">
<path d="M12 32C12 34.2091 10.2091 36 8 36C5.79086 36 4 34.2091 4 32C4 30.1362 5.27477 28.5701 7 28.126V6C7 5.44772 7.44772 5 8 5C8.55229 5 9 5.44772 9 6V28.126C10.7252 28.5701 12 30.1362 12 32Z" fill="white"/>
<path fill-rule="evenodd" clip-rule="evenodd" d="M3 25.7546V5C3 3.67392 3.52678 2.40215 4.46447 1.46447C5.40215 0.526784 6.67392 0 8 0C9.32608 0 10.5979 0.526784 11.5355 1.46447C12.4732 2.40215 13 3.67392 13 5V25.7546C14.8289 27.2208 16 29.4736 16 32C16 36.4183 12.4183 40 8 40C3.58172 40 0 36.4183 0 32C0 29.4736 1.17107 27.2208 3 25.7546ZM4 5C4 4.83195 4.01058 4.66498 4.03136 4.5C4.14177 3.6235 4.54026 2.80289 5.17157 2.17157C5.92172 1.42143 6.93913 1 8 1C9.06087 1 10.0783 1.42143 10.8284 2.17157C11.4597 2.80289 11.8582 3.6235 11.9686 4.5C11.9894 4.66498 12 4.83195 12 5V26.2547C12.3202 26.4781 12.6209 26.7275 12.899 27C12.933 27.0333 12.9667 27.067 13 27.101C14.2372 28.3636 15 30.0927 15 32C15 35.866 11.866 39 8 39C4.13401 39 1 35.866 1 32C1 30.0927 1.76281 28.3636 3 27.101C3.03333 27.067 3.067 27.0333 3.10102 27C3.37907 26.7275 3.67976 26.4781 4 26.2547V5Z" fill="white"/>
</svg>
