<svg width="20" height="20" viewBox="0 0 28 22" fill="none" xmlns="http://www.w3.org/2000/svg">
<path d="M1 7.99999H21.252C23.4005 7.99999 25.8394 7.67193 26.6812 5.69513C27.1788 4.52647 27.1853 3.12278 26.0353 1.9394C25.4054 1.29126 24.5036 0.95241 23.6016 1.0095C22.4911 1.0798 21.0683 1.57348 20.8503 3.59185M1 14H21.252C23.4005 14 25.8394 14.328 26.6812 16.3048C27.1788 17.4735 27.1853 18.8772 26.0353 20.0606C25.4054 20.7087 24.5036 21.0476 23.6016 20.9905C22.4911 20.9202 21.0683 20.4265 20.8503 18.4081M1 11H17M19 11H23M25 11H27"  stroke="white" stroke-width='2' stroke-linecap="round"/>
</svg>
