<svg width="57" height="36" viewBox="0 0 57 36" fill="white" xmlns="http://www.w3.org/2000/svg">
<path d="M49.5 30C49.5 30 59.3362 27.9302 54.5541 19.4745C56.9451 13.0482 50.1135 7.05395 42.5987 11.0188C42.9403 5.26895 36.4503 0.19554 28.9393 7.05395C21.0791 -5.89252 4.03844 5.50029 9.49995 17C-1.99998 18 1.50001 30 2.99998 30L12 30" stroke="white" stroke-width="2" stroke-linecap="round"/>
<path d="M38 24.9167C38 27.1718 35.9853 29 33.5 29C31.0147 29 29 27.1718 29 24.9167C29.3673 22.5833 29 24.5 33.5 15C38 24.5 37.7245 22.8333 38 24.9167Z" fill="#00C2FF"/>
<path d="M25 29.9167C25 32.1718 22.9853 34 20.5 34C18.0147 34 16 32.1718 16 29.9167C16.3673 27.5833 16 29.5 20.5 20C25 29.5 24.7245 27.8333 25 29.9167Z" fill="#00C2FF"/>
<path d="M47 31.9167C47 34.1718 44.9853 36 42.5 36C40.0147 36 38 34.1718 38 31.9167C38.3673 29.5833 38 31.5 42.5 22C47 31.5 46.7245 29.8333 47 31.9167Z" fill="#00C2FF"/>
</svg>
