<svg width="57" height="50" viewBox="0 0 57 50" fill="white" xmlns="http://www.w3.org/2000/svg">
<path d="M49.5 30C49.5 30 59.3362 27.9302 54.5541 19.4745C56.9451 13.0482 50.1135 7.05395 42.5987 11.0188C42.9403 5.26895 36.4503 0.19554 28.9393 7.05395C21.0791 -5.89252 4.03844 5.50029 9.49995 17C-1.99998 18 1.50001 30 2.99998 30L12 30M17.65 35V42M17.65 42V42.145M17.65 42H18M17.65 42H17.505M17.65 42.145V42.35M17.65 42.145L17.505 42M17.65 42.145L17.7525 42.2475M17.65 42.35V49M17.65 42.35L17.7525 42.2475M17.65 42.35L13.0502 46.9497M25 42H18M18 42L22.9497 37.0502M18 42L17.7525 42.2475M17.505 42H11M17.505 42L12.8028 37.2977M17.7525 42.2475L22.7022 47.1972M45.65 33V40M45.65 40V40.145M45.65 40H46M45.65 40H45.505M45.65 40.145V40.35M45.65 40.145L45.505 40M45.65 40.145L45.7525 40.2475M45.65 40.35V47M45.65 40.35L45.7525 40.2475M45.65 40.35L41.0502 44.9497M53 40H46M46 40L50.9497 35.0502M46 40L45.7525 40.2475M45.505 40H39M45.505 40L40.8028 35.2977M45.7525 40.2475L50.7022 45.1972M31.65 22V29M31.65 29V29.145M31.65 29H32M31.65 29H31.505M31.65 29.145V29.35M31.65 29.145L31.505 29M31.65 29.145L31.7525 29.2475M31.65 29.35V36M31.65 29.35L31.7525 29.2475M31.65 29.35L27.0502 33.9497M39 29H32M32 29L36.9497 24.0502M32 29L31.7525 29.2475M31.505 29H25M31.505 29L26.8028 24.2977M31.7525 29.2475L36.7022 34.1972" stroke="white" stroke-width="2" stroke-linecap="round"/>
</svg>
