<svg width="61" height="40" viewBox="0 0 61 40" fill="none" xmlns="http://www.w3.org/2000/svg">
<path d="M17.1163 5.60465V1M1 17.1163H5.60465M17.1163 34V29.3954M29.3954 16.7326H34M25.5581 8.86062L28.8141 5.60464M9.24436 9.01957L5.98838 5.76359M26.1008 25.5581L29.3568 28.8141M5.60465 28.8141L8.86063 25.5581M9.74884 17.6919C9.74884 22.0787 13.3051 25.6349 17.6919 25.6349C22.0787 25.6349 25.6349 22.0787 25.6349 17.6919C25.6349 13.3051 22.0787 9.74884 17.6919 9.74884C13.3051 9.74884 9.74884 13.3051 9.74884 17.6919Z" stroke="#FFC700" stroke-width="2" stroke-linecap="round"/>
<path d="M17.7698 26.7002C15.2597 27.4779 14.0668 29.7197 13.5021 32.1722C12.6619 35.8207 16.119 38.8736 19.8599 38.7219H51.5619C57.2744 38.7219 59.8011 35.1991 57.1199 30.1549C59.2067 24.1876 53.2446 18.6215 46.6862 22.3032C46.9843 16.964 41.3203 12.253 34.7652 18.6215C27.9055 6.59982 13.0034 16.0218 17.7698 26.7002Z" fill="white" stroke="white" stroke-width="2"/>
</svg>
